#!OML:ASF I:\Actors\actors\Patient Classification 2\Patient 1\Session 1\actor1.ASF
:FULLY-SPECIFIED
:DEGREES
189
root -0.810763 18.7269 5.43278 2.05519 -2.6111 -3.53974
lowerback 6.67733 0.650328 0.465425
upperback 0.173327 0.929592 0.762913
thorax -3.57074 0.459845 0.43641
lowerneck -9.98103 -1.33798 1.0156
upperneck 20.2419 -2.49833 2.14554
head 7.91035 -0.908928 0.295471
rclavicle 1.25234e-014 -1.59028e-015
rhumerus -47.9395 -2.17219 -84.6316
rradius 44.6382
rwrist 6.47822
rhand -0.227856 -39.5715
rfingers 7.12502
rthumb 25.3721 -67.9035
lclavicle 1.25234e-014 -1.59028e-015
lhumerus -41.7396 3.07371 86.8622
lradius 41.8307
lwrist -6.90737
lhand -4.1668 -25.4592
lfingers 7.12502
lthumb 21.5938 3.35683
rfemur 4.83613 3.41886 17.9118
rtibia -1.11319e-014
rfoot -16.7788 -12.335
rtoes -8.04794
lfemur -7.20612 -5.35129 -10.3051
ltibia 23.1568
lfoot -21.9173 12.1936
ltoes -55.5866
190
root -0.811989 18.727 5.43048 2.05894 -2.59873 -3.56117
lowerback 6.68237 0.638853 0.479356
upperback 0.155906 0.915998 0.773192
thorax -3.59149 0.452911 0.440348
lowerneck -9.97145 -1.37306 0.951718
upperneck 20.2301 -2.54738 2.20568
head 7.90665 -0.93162 0.321305
rclavicle -6.83322e-015 -9.93923e-016
rhumerus -47.9628 -2.11364 -84.6591
rradius 44.6499
rwrist 6.41615
rhand -0.29218 -39.5665
rfingers 7.12502
rthumb 25.3105 -67.9072
lclavicle -6.83322e-015 -9.93923e-016
lhumerus -41.748 3.16576 86.8367
lradius 41.8233
lwrist -6.91341
lhand -4.48253 -25.4098
lfingers 7.12502
lthumb 21.2905 3.44081
rfemur 4.82944 3.40704 17.9401
rtibia -1.66979e-014
rfoot -16.7785 -12.335
rtoes -8.01511
lfemur -7.21485 -5.35149 -10.273
ltibia 23.143
lfoot -21.9018 12.182
ltoes -55.5809
191
root -0.81262 18.727 5.42755 2.03331 -2.61026 -3.55164
lowerback 6.73631 0.644439 0.479723
upperback 0.135362 0.923912 0.765228
thorax -3.64292 0.456674 0.43041
lowerneck -9.96852 -1.40774 0.913601
upperneck 20.2335 -2.60166 2.26809
head 7.90908 -0.95434 0.342996
rclavicle -2.54196e-014 8.74653e-015
rhumerus -48.0206 -2.13096 -84.656
rradius 44.686
rwrist 6.41265
rhand -0.239086 -39.5685
rfingers 7.12502
rthumb 25.3614 -67.902
lclavicle -2.54196e-014 8.74653e-015
lhumerus -41.7584 3.19201 86.8271
lradius 41.7637
lwrist -6.88767
lhand -5.09812 -25.2904
lfingers 7.12502
lthumb 20.6991 3.62577
rfemur 4.84697 3.41909 17.9324
rtibia 1.51076e-014
rfoot -16.7861 -12.3288
rtoes -7.92765
lfemur -7.19443 -5.33865 -10.2838
ltibia 23.1371
lfoot -21.8882 12.183
ltoes -55.5637
192
root -0.812769 18.7271 5.42448 2.00455 -2.57933 -3.50851
lowerback 6.79545 0.638946 0.457259
upperback 0.104341 0.914966 0.744834
thorax -3.7082 0.452343 0.421977
lowerneck -9.93217 -1.42042 0.950713
upperneck 20.2364 -2.6264 2.27243
head 7.90335 -0.963168 0.336107
rclavicle 1.87106e-014 1.98785e-016
rhumerus -48.0872 -2.19188 -84.6366
rradius 44.7008
rwrist 6.41188
rhand -0.157749 -39.6058
rfingers 7.12502
rthumb 25.4393 -67.9282
lclavicle 1.87106e-014 1.98785e-016
lhumerus -41.8065 3.17686 86.8216
lradius 41.739
lwrist -6.88447
lhand -5.39284 -25.2407
lfingers 7.12502
lthumb 20.4159 3.706
rfemur 4.86462 3.38781 17.8856
rtibia -1.35174e-014
rfoot -16.7676 -12.3365
rtoes -7.93123
lfemur -7.18869 -5.35101 -10.3315
ltibia 23.1386
lfoot -21.8669 12.1617
ltoes -55.5427
193
root -0.812961 18.7273 5.42312 1.99576 -2.52953 -3.48129
lowerback 6.78573 0.626583 0.453577
upperback 0.0982003 0.897722 0.732545
thorax -3.70888 0.443748 0.413129
lowerneck -9.8873 -1.40492 1.08678
upperneck 20.1887 -2.59857 2.13543
head 7.87549 -0.953818 0.271351
rclavicle 4.64659e-015 -7.35503e-015
rhumerus -48.1029 -2.23294 -84.6206
rradius 44.6959
rwrist 6.36184
rhand -0.168198 -39.6305
rfingers 7.12502
rthumb 25.4293 -67.9543
lclavicle 4.64659e-015 -7.35503e-015
lhumerus -41.8321 3.14087 86.8396
lradius 41.7585
lwrist -6.86847
lhand -5.4523 -25.2195
lfingers 7.12502
lthumb 20.3588 3.73339
rfemur 4.87135 3.33762 17.8518
rtibia -3.18055e-015
rfoot -16.7709 -12.3112
rtoes -7.73373
lfemur -7.20459 -5.35029 -10.3593
ltibia 23.1448
lfoot -21.8243 12.1391
ltoes -55.6252
194
root -0.813138 18.7272 5.42146 1.97739 -2.51082 -3.48215
lowerback 6.75834 0.624116 0.476251
upperback 0.120775 0.895626 0.730089
thorax -3.66973 0.442351 0.398508
lowerneck -9.8438 -1.37917 1.17196
upperneck 20.1347 -2.56137 2.0667
head 7.84745 -0.9374 0.23853
rclavicle -1.93815e-015 -9.93923e-016
rhumerus -48.0751 -2.29698 -84.5939
rradius 44.6818
rwrist 6.36782
rhand -0.194745 -39.604
rfingers 7.12502
rthumb 25.4038 -67.9314
lclavicle -1.93815e-015 -9.93923e-016
lhumerus -41.8125 3.09354 86.8795
lradius 41.7488
lwrist -6.85173
lhand -5.49263 -25.1824
lfingers 7.12502
lthumb 20.32 3.77463
rfemur 4.88751 3.31971 17.8519
rtibia -5.56597e-015
rfoot -16.7857 -12.2944
rtoes -7.60527
lfemur -7.20118 -5.31413 -10.357
ltibia 23.156
lfoot -21.774 12.1291
ltoes -55.7371
195
root -0.812939 18.7271 5.41872 1.96344 -2.51705 -3.50276
lowerback 6.75154 0.628978 0.515476
upperback 0.123995 0.905374 0.738576
thorax -3.66215 0.446589 0.384388
lowerneck -9.76124 -1.35236 1.15403
upperneck 20.0897 -2.53443 2.14642
head 7.81886 -0.919735 0.271083
rclavicle -1.09332e-015 1.19271e-015
rhumerus -48.0982 -2.37157 -84.5502
rradius 44.6789
rwrist 6.41935
rhand -0.207537 -39.5713
rfingers 7.12502
rthumb 25.3916 -67.9004
lclavicle -1.09332e-015 1.19271e-015
lhumerus -41.8201 3.07246 86.9202
lradius 41.7188
lwrist -6.86009
lhand -5.39425 -25.1451
lfingers 7.12502
lthumb 20.4146 3.80179
rfemur 4.89267 3.32712 17.8762
rtibia 2.38542e-015
rfoot -16.7803 -12.3097
rtoes -7.65588
lfemur -7.19813 -5.30401 -10.3344
ltibia 23.1694
lfoot -21.7596 12.1306
ltoes -55.7281
196
root -0.812677 18.7274 5.41559 1.96904 -2.52327 -3.53052
lowerback 6.74926 0.632325 0.554247
upperback 0.105513 0.913626 0.7544
thorax -3.6797 0.450103 0.378067
lowerneck -9.68686 -1.31721 1.15176
upperneck 20.0634 -2.49325 2.19614
head 7.79723 -0.896635 0.292363
rclavicle 1.76421e-015 1.19271e-015
rhumerus -48.173 -2.38406 -84.5169
rradius 44.7147
rwrist 6.44889
rhand -0.172759 -39.6053
rfingers 7.12502
rthumb 25.4249 -67.9297
lclavicle 1.76421e-015 1.19271e-015
lhumerus -41.8794 3.10071 86.9581
lradius 41.7368
lwrist -6.87089
lhand -5.29368 -25.0848
lfingers 7.12502
lthumb 20.5112 3.8517
rfemur 4.87732 3.33403 17.907
rtibia 1.19271e-014
rfoot -16.773 -12.3184
rtoes -7.67659
lfemur -7.2157 -5.29826 -10.2989
ltibia 23.1784
lfoot -21.7729 12.1125
ltoes -55.6668
197
root -0.813223 18.7276 5.41239 1.97684 -2.52437 -3.55031
lowerback 6.729 0.631072 0.571186
upperback 0.105102 0.913587 0.768214
thorax -3.66872 0.44993 0.383053
lowerneck -9.64656 -1.27232 1.20986
upperneck 20.0532 -2.43251 2.15844
head 7.78503 -0.867413 0.276359
rclavicle -2.48481e-017 -1.13307e-014
rhumerus -48.2094 -2.38016 -84.5012
rradius 44.7625
rwrist 6.5008
rhand -0.0714789 -39.6888
rfingers 7.12502
rthumb 25.5219 -67.9994
lclavicle -2.48481e-017 -1.13307e-014
lhumerus -41.9094 3.15213 86.9837
lradius 41.7569
lwrist -6.89875
lhand -5.23037 -25.0555
lfingers 7.12502
lthumb 20.5721 3.87445
rfemur 4.86041 3.33547 17.93
rtibia 1.35174e-014
rfoot -16.787 -12.3114
rtoes -7.66716
lfemur -7.2319 -5.28165 -10.2664
ltibia 23.1776
lfoot -21.7893 12.0701
ltoes -55.5855
198
root -0.813702 18.7274 5.41053 1.98043 -2.53485 -3.54263
lowerback 6.67965 0.632881 0.579802
upperback 0.118217 0.9155 0.755458
thorax -3.6271 0.450725 0.365503
lowerneck -9.6272 -1.23883 1.32565
upperneck 20.0816 -2.38901 2.07008
head 7.7883 -0.846096 0.232188
rclavicle -3.72721e-015 0
rhumerus -48.2018 -2.38995 -84.5204
rradius 44.7619
rwrist 6.52766
rhand -0.0611169 -39.6784
rfingers 7.12502
rthumb 25.5318 -67.9875
lclavicle -3.72721e-015 0
lhumerus -41.9397 3.10807 86.985
lradius 41.7916
lwrist -6.96418
lhand -4.82212 -25.0009
lfingers 7.12502
lthumb 20.9643 3.88616
rfemur 4.84817 3.34555 17.9206
rtibia -7.95139e-016
rfoot -16.7899 -12.3142
rtoes -7.74862
lfemur -7.22928 -5.28104 -10.2717
ltibia 23.1649
lfoot -21.8169 12.043
ltoes -55.4991
199
root -0.813652 18.7277 5.41052 1.98092 -2.56259 -3.52841
lowerback 6.60769 0.646899 0.587905
upperback 0.116268 0.933542 0.742203
thorax -3.58842 0.45954 0.346359
lowerneck -9.63024 -1.2237 1.45937
upperneck 20.2173 -2.36748 1.93216
head 7.83042 -0.83671 0.166246
rclavicle 9.29318e-015 -1.66979e-014
rhumerus -48.2056 -2.38955 -84.5321
rradius 44.7031
rwrist 6.54222
rhand -0.0937396 -39.5513
rfingers 7.12502
rthumb 25.5006 -67.8649
lclavicle 9.29318e-015 -1.66979e-014
lhumerus -42.0291 3.01249 87.0036
lradius 41.8657
lwrist -7.04576
lhand -4.44429 -24.9243
lfingers 7.12502
lthumb 21.3273 3.92211
rfemur 4.84213 3.37276 17.9038
rtibia -4.77083e-015
rfoot -16.7596 -12.3406
rtoes -7.89029
lfemur -7.20746 -5.3104 -10.2959
ltibia 23.1429
lfoot -21.8606 12.0709
ltoes -55.4748
